<svg width="800" height="200" viewBox="0 0 800 200" xmlns="http://www.w3.org/2000/svg">
  <style>
    .title { font: 600 15px -apple-system, BlinkMacSystemFont, "Segoe UI", Helvetica, Arial, sans-serif, "Apple Color Emoji", "Segoe UI Emoji"; fill: #e6edf3; }
    .label { font: 400 10px -apple-system, BlinkMacSystemFont, "Segoe UI", Helvetica, Arial, sans-serif, "Apple Color Emoji", "Segoe UI Emoji"; fill: #8b949e; }
    .sub { font: 400 12px -apple-system, BlinkMacSystemFont, "Segoe UI", Helvetica, Arial, sans-serif, "Apple Color Emoji", "Segoe UI Emoji"; fill: #8b949e; }
  </style>
  
  <text x="10" y="30" class="title" style="display:none;">Contribution Activity</text>
  
  <g transform="translate(0, 0)">
    <text x="10" y="15" class="label">Sep</text><text x="52" y="15" class="label">Oct</text><text x="108" y="15" class="label">Nov</text><text x="178" y="15" class="label">Dec</text><text x="234" y="15" class="label">Jan</text><text x="290" y="15" class="label">Feb</text><text x="346" y="15" class="label">Mar</text><text x="416" y="15" class="label">Apr</text><text x="472" y="15" class="label">May</text><text x="542" y="15" class="label">Jun</text><text x="598" y="15" class="label">Jul</text><text x="654" y="15" class="label">Aug</text><text x="724" y="15" class="label">Sep</text>
    <rect x="10" y="30" width="11" height="11" fill="#161b22" rx="2" /><rect x="10" y="44" width="11" height="11" fill="#0e4429" rx="2" /><rect x="10" y="58" width="11" height="11" fill="#161b22" rx="2" /><rect x="10" y="72" width="11" height="11" fill="#161b22" rx="2" /><rect x="10" y="86" width="11" height="11" fill="#161b22" rx="2" /><rect x="10" y="100" width="11" height="11" fill="#161b22" rx="2" /><rect x="10" y="114" width="11" height="11" fill="#161b22" rx="2" /><rect x="24" y="30" width="11" height="11" fill="#161b22" rx="2" /><rect x="24" y="44" width="11" height="11" fill="#161b22" rx="2" /><rect x="24" y="58" width="11" height="11" fill="#161b22" rx="2" /><rect x="24" y="72" width="11" height="11" fill="#161b22" rx="2" /><rect x="24" y="86" width="11" height="11" fill="#161b22" rx="2" /><rect x="24" y="100" width="11" height="11" fill="#161b22" rx="2" /><rect x="24" y="114" width="11" height="11" fill="#006d32" rx="2" /><rect x="38" y="30" width="11" height="11" fill="#006d32" rx="2" /><rect x="38" y="44" width="11" height="11" fill="#161b22" rx="2" /><rect x="38" y="58" width="11" height="11" fill="#006d32" rx="2" /><rect x="38" y="72" width="11" height="11" fill="#161b22" rx="2" /><rect x="38" y="86" width="11" height="11" fill="#161b22" rx="2" /><rect x="38" y="100" width="11" height="11" fill="#006d32" rx="2" /><rect x="38" y="114" width="11" height="11" fill="#161b22" rx="2" /><rect x="52" y="30" width="11" height="11" fill="#161b22" rx="2" /><rect x="52" y="44" width="11" height="11" fill="#161b22" rx="2" /><rect x="52" y="58" width="11" height="11" fill="#161b22" rx="2" /><rect x="52" y="72" width="11" height="11" fill="#006d32" rx="2" /><rect x="52" y="86" width="11" height="11" fill="#161b22" rx="2" /><rect x="52" y="100" width="11" height="11" fill="#006d32" rx="2" /><rect x="52" y="114" width="11" height="11" fill="#0e4429" rx="2" /><rect x="66" y="30" width="11" height="11" fill="#161b22" rx="2" /><rect x="66" y="44" width="11" height="11" fill="#006d32" rx="2" /><rect x="66" y="58" width="11" height="11" fill="#161b22" rx="2" /><rect x="66" y="72" width="11" height="11" fill="#161b22" rx="2" /><rect x="66" y="86" width="11" height="11" fill="#26a641" rx="2" /><rect x="66" y="100" width="11" height="11" fill="#161b22" rx="2" /><rect x="66" y="114" width="11" height="11" fill="#161b22" rx="2" /><rect x="80" y="30" width="11" height="11" fill="#161b22" rx="2" /><rect x="80" y="44" width="11" height="11" fill="#006d32" rx="2" /><rect x="80" y="58" width="11" height="11" fill="#0e4429" rx="2" /><rect x="80" y="72" width="11" height="11" fill="#161b22" rx="2" /><rect x="80" y="86" width="11" height="11" fill="#161b22" rx="2" /><rect x="80" y="100" width="11" height="11" fill="#26a641" rx="2" /><rect x="80" y="114" width="11" height="11" fill="#26a641" rx="2" /><rect x="94" y="30" width="11" height="11" fill="#26a641" rx="2" /><rect x="94" y="44" width="11" height="11" fill="#161b22" rx="2" /><rect x="94" y="58" width="11" height="11" fill="#161b22" rx="2" /><rect x="94" y="72" width="11" height="11" fill="#006d32" rx="2" /><rect x="94" y="86" width="11" height="11" fill="#0e4429" rx="2" /><rect x="94" y="100" width="11" height="11" fill="#161b22" rx="2" /><rect x="94" y="114" width="11" height="11" fill="#006d32" rx="2" /><rect x="108" y="30" width="11" height="11" fill="#0e4429" rx="2" /><rect x="108" y="44" width="11" height="11" fill="#0e4429" rx="2" /><rect x="108" y="58" width="11" height="11" fill="#26a641" rx="2" /><rect x="108" y="72" width="11" height="11" fill="#161b22" rx="2" /><rect x="108" y="86" width="11" height="11" fill="#161b22" rx="2" /><rect x="108" y="100" width="11" height="11" fill="#0e4429" rx="2" /><rect x="108" y="114" width="11" height="11" fill="#161b22" rx="2" /><rect x="122" y="30" width="11" height="11" fill="#006d32" rx="2" /><rect x="122" y="44" width="11" height="11" fill="#0e4429" rx="2" /><rect x="122" y="58" width="11" height="11" fill="#26a641" rx="2" /><rect x="122" y="72" width="11" height="11" fill="#26a641" rx="2" /><rect x="122" y="86" width="11" height="11" fill="#161b22" rx="2" /><rect x="122" y="100" width="11" height="11" fill="#161b22" rx="2" /><rect x="122" y="114" width="11" height="11" fill="#161b22" rx="2" /><rect x="136" y="30" width="11" height="11" fill="#26a641" rx="2" /><rect x="136" y="44" width="11" height="11" fill="#006d32" rx="2" /><rect x="136" y="58" width="11" height="11" fill="#006d32" rx="2" /><rect x="136" y="72" width="11" height="11" fill="#0e4429" rx="2" /><rect x="136" y="86" width="11" height="11" fill="#161b22" rx="2" /><rect x="136" y="100" width="11" height="11" fill="#0e4429" rx="2" /><rect x="136" y="114" width="11" height="11" fill="#0e4429" rx="2" /><rect x="150" y="30" width="11" height="11" fill="#161b22" rx="2" /><rect x="150" y="44" width="11" height="11" fill="#161b22" rx="2" /><rect x="150" y="58" width="11" height="11" fill="#161b22" rx="2" /><rect x="150" y="72" width="11" height="11" fill="#0e4429" rx="2" /><rect x="150" y="86" width="11" height="11" fill="#006d32" rx="2" /><rect x="150" y="100" width="11" height="11" fill="#161b22" rx="2" /><rect x="150" y="114" width="11" height="11" fill="#161b22" rx="2" /><rect x="164" y="30" width="11" height="11" fill="#0e4429" rx="2" /><rect x="164" y="44" width="11" height="11" fill="#161b22" rx="2" /><rect x="164" y="58" width="11" height="11" fill="#161b22" rx="2" /><rect x="164" y="72" width="11" height="11" fill="#161b22" rx="2" /><rect x="164" y="86" width="11" height="11" fill="#26a641" rx="2" /><rect x="164" y="100" width="11" height="11" fill="#006d32" rx="2" /><rect x="164" y="114" width="11" height="11" fill="#161b22" rx="2" /><rect x="178" y="30" width="11" height="11" fill="#006d32" rx="2" /><rect x="178" y="44" width="11" height="11" fill="#006d32" rx="2" /><rect x="178" y="58" width="11" height="11" fill="#006d32" rx="2" /><rect x="178" y="72" width="11" height="11" fill="#0e4429" rx="2" /><rect x="178" y="86" width="11" height="11" fill="#161b22" rx="2" /><rect x="178" y="100" width="11" height="11" fill="#161b22" rx="2" /><rect x="178" y="114" width="11" height="11" fill="#0e4429" rx="2" /><rect x="192" y="30" width="11" height="11" fill="#26a641" rx="2" /><rect x="192" y="44" width="11" height="11" fill="#161b22" rx="2" /><rect x="192" y="58" width="11" height="11" fill="#0e4429" rx="2" /><rect x="192" y="72" width="11" height="11" fill="#0e4429" rx="2" /><rect x="192" y="86" width="11" height="11" fill="#161b22" rx="2" /><rect x="192" y="100" width="11" height="11" fill="#161b22" rx="2" /><rect x="192" y="114" width="11" height="11" fill="#161b22" rx="2" /><rect x="206" y="30" width="11" height="11" fill="#161b22" rx="2" /><rect x="206" y="44" width="11" height="11" fill="#161b22" rx="2" /><rect x="206" y="58" width="11" height="11" fill="#006d32" rx="2" /><rect x="206" y="72" width="11" height="11" fill="#161b22" rx="2" /><rect x="206" y="86" width="11" height="11" fill="#161b22" rx="2" /><rect x="206" y="100" width="11" height="11" fill="#161b22" rx="2" /><rect x="206" y="114" width="11" height="11" fill="#006d32" rx="2" /><rect x="220" y="30" width="11" height="11" fill="#161b22" rx="2" /><rect x="220" y="44" width="11" height="11" fill="#161b22" rx="2" /><rect x="220" y="58" width="11" height="11" fill="#161b22" rx="2" /><rect x="220" y="72" width="11" height="11" fill="#161b22" rx="2" /><rect x="220" y="86" width="11" height="11" fill="#161b22" rx="2" /><rect x="220" y="100" width="11" height="11" fill="#161b22" rx="2" /><rect x="220" y="114" width="11" height="11" fill="#0e4429" rx="2" /><rect x="234" y="30" width="11" height="11" fill="#26a641" rx="2" /><rect x="234" y="44" width="11" height="11" fill="#161b22" rx="2" /><rect x="234" y="58" width="11" height="11" fill="#161b22" rx="2" /><rect x="234" y="72" width="11" height="11" fill="#161b22" rx="2" /><rect x="234" y="86" width="11" height="11" fill="#161b22" rx="2" /><rect x="234" y="100" width="11" height="11" fill="#161b22" rx="2" /><rect x="234" y="114" width="11" height="11" fill="#0e4429" rx="2" /><rect x="248" y="30" width="11" height="11" fill="#26a641" rx="2" /><rect x="248" y="44" width="11" height="11" fill="#26a641" rx="2" /><rect x="248" y="58" width="11" height="11" fill="#161b22" rx="2" /><rect x="248" y="72" width="11" height="11" fill="#006d32" rx="2" /><rect x="248" y="86" width="11" height="11" fill="#161b22" rx="2" /><rect x="248" y="100" width="11" height="11" fill="#006d32" rx="2" /><rect x="248" y="114" width="11" height="11" fill="#161b22" rx="2" /><rect x="262" y="30" width="11" height="11" fill="#006d32" rx="2" /><rect x="262" y="44" width="11" height="11" fill="#0e4429" rx="2" /><rect x="262" y="58" width="11" height="11" fill="#161b22" rx="2" /><rect x="262" y="72" width="11" height="11" fill="#161b22" rx="2" /><rect x="262" y="86" width="11" height="11" fill="#161b22" rx="2" /><rect x="262" y="100" width="11" height="11" fill="#0e4429" rx="2" /><rect x="262" y="114" width="11" height="11" fill="#161b22" rx="2" /><rect x="276" y="30" width="11" height="11" fill="#006d32" rx="2" /><rect x="276" y="44" width="11" height="11" fill="#161b22" rx="2" /><rect x="276" y="58" width="11" height="11" fill="#0e4429" rx="2" /><rect x="276" y="72" width="11" height="11" fill="#0e4429" rx="2" /><rect x="276" y="86" width="11" height="11" fill="#006d32" rx="2" /><rect x="276" y="100" width="11" height="11" fill="#161b22" rx="2" /><rect x="276" y="114" width="11" height="11" fill="#26a641" rx="2" /><rect x="290" y="30" width="11" height="11" fill="#161b22" rx="2" /><rect x="290" y="44" width="11" height="11" fill="#161b22" rx="2" /><rect x="290" y="58" width="11" height="11" fill="#161b22" rx="2" /><rect x="290" y="72" width="11" height="11" fill="#26a641" rx="2" /><rect x="290" y="86" width="11" height="11" fill="#161b22" rx="2" /><rect x="290" y="100" width="11" height="11" fill="#006d32" rx="2" /><rect x="290" y="114" width="11" height="11" fill="#161b22" rx="2" /><rect x="304" y="30" width="11" height="11" fill="#0e4429" rx="2" /><rect x="304" y="44" width="11" height="11" fill="#161b22" rx="2" /><rect x="304" y="58" width="11" height="11" fill="#161b22" rx="2" /><rect x="304" y="72" width="11" height="11" fill="#161b22" rx="2" /><rect x="304" y="86" width="11" height="11" fill="#161b22" rx="2" /><rect x="304" y="100" width="11" height="11" fill="#161b22" rx="2" /><rect x="304" y="114" width="11" height="11" fill="#006d32" rx="2" /><rect x="318" y="30" width="11" height="11" fill="#26a641" rx="2" /><rect x="318" y="44" width="11" height="11" fill="#161b22" rx="2" /><rect x="318" y="58" width="11" height="11" fill="#161b22" rx="2" /><rect x="318" y="72" width="11" height="11" fill="#161b22" rx="2" /><rect x="318" y="86" width="11" height="11" fill="#161b22" rx="2" /><rect x="318" y="100" width="11" height="11" fill="#161b22" rx="2" /><rect x="318" y="114" width="11" height="11" fill="#006d32" rx="2" /><rect x="332" y="30" width="11" height="11" fill="#161b22" rx="2" /><rect x="332" y="44" width="11" height="11" fill="#26a641" rx="2" /><rect x="332" y="58" width="11" height="11" fill="#161b22" rx="2" /><rect x="332" y="72" width="11" height="11" fill="#26a641" rx="2" /><rect x="332" y="86" width="11" height="11" fill="#0e4429" rx="2" /><rect x="332" y="100" width="11" height="11" fill="#161b22" rx="2" /><rect x="332" y="114" width="11" height="11" fill="#161b22" rx="2" /><rect x="346" y="30" width="11" height="11" fill="#161b22" rx="2" /><rect x="346" y="44" width="11" height="11" fill="#0e4429" rx="2" /><rect x="346" y="58" width="11" height="11" fill="#161b22" rx="2" /><rect x="346" y="72" width="11" height="11" fill="#0e4429" rx="2" /><rect x="346" y="86" width="11" height="11" fill="#0e4429" rx="2" /><rect x="346" y="100" width="11" height="11" fill="#161b22" rx="2" /><rect x="346" y="114" width="11" height="11" fill="#161b22" rx="2" /><rect x="360" y="30" width="11" height="11" fill="#161b22" rx="2" /><rect x="360" y="44" width="11" height="11" fill="#161b22" rx="2" /><rect x="360" y="58" width="11" height="11" fill="#26a641" rx="2" /><rect x="360" y="72" width="11" height="11" fill="#0e4429" rx="2" /><rect x="360" y="86" width="11" height="11" fill="#161b22" rx="2" /><rect x="360" y="100" width="11" height="11" fill="#26a641" rx="2" /><rect x="360" y="114" width="11" height="11" fill="#26a641" rx="2" /><rect x="374" y="30" width="11" height="11" fill="#161b22" rx="2" /><rect x="374" y="44" width="11" height="11" fill="#161b22" rx="2" /><rect x="374" y="58" width="11" height="11" fill="#161b22" rx="2" /><rect x="374" y="72" width="11" height="11" fill="#26a641" rx="2" /><rect x="374" y="86" width="11" height="11" fill="#0e4429" rx="2" /><rect x="374" y="100" width="11" height="11" fill="#161b22" rx="2" /><rect x="374" y="114" width="11" height="11" fill="#006d32" rx="2" /><rect x="388" y="30" width="11" height="11" fill="#161b22" rx="2" /><rect x="388" y="44" width="11" height="11" fill="#0e4429" rx="2" /><rect x="388" y="58" width="11" height="11" fill="#161b22" rx="2" /><rect x="388" y="72" width="11" height="11" fill="#26a641" rx="2" /><rect x="388" y="86" width="11" height="11" fill="#161b22" rx="2" /><rect x="388" y="100" width="11" height="11" fill="#161b22" rx="2" /><rect x="388" y="114" width="11" height="11" fill="#161b22" rx="2" /><rect x="402" y="30" width="11" height="11" fill="#26a641" rx="2" /><rect x="402" y="44" width="11" height="11" fill="#0e4429" rx="2" /><rect x="402" y="58" width="11" height="11" fill="#161b22" rx="2" /><rect x="402" y="72" width="11" height="11" fill="#161b22" rx="2" /><rect x="402" y="86" width="11" height="11" fill="#161b22" rx="2" /><rect x="402" y="100" width="11" height="11" fill="#26a641" rx="2" /><rect x="402" y="114" width="11" height="11" fill="#0e4429" rx="2" /><rect x="416" y="30" width="11" height="11" fill="#0e4429" rx="2" /><rect x="416" y="44" width="11" height="11" fill="#26a641" rx="2" /><rect x="416" y="58" width="11" height="11" fill="#161b22" rx="2" /><rect x="416" y="72" width="11" height="11" fill="#161b22" rx="2" /><rect x="416" y="86" width="11" height="11" fill="#161b22" rx="2" /><rect x="416" y="100" width="11" height="11" fill="#161b22" rx="2" /><rect x="416" y="114" width="11" height="11" fill="#161b22" rx="2" /><rect x="430" y="30" width="11" height="11" fill="#161b22" rx="2" /><rect x="430" y="44" width="11" height="11" fill="#161b22" rx="2" /><rect x="430" y="58" width="11" height="11" fill="#161b22" rx="2" /><rect x="430" y="72" width="11" height="11" fill="#006d32" rx="2" /><rect x="430" y="86" width="11" height="11" fill="#161b22" rx="2" /><rect x="430" y="100" width="11" height="11" fill="#161b22" rx="2" /><rect x="430" y="114" width="11" height="11" fill="#161b22" rx="2" /><rect x="444" y="30" width="11" height="11" fill="#0e4429" rx="2" /><rect x="444" y="44" width="11" height="11" fill="#161b22" rx="2" /><rect x="444" y="58" width="11" height="11" fill="#26a641" rx="2" /><rect x="444" y="72" width="11" height="11" fill="#26a641" rx="2" /><rect x="444" y="86" width="11" height="11" fill="#161b22" rx="2" /><rect x="444" y="100" width="11" height="11" fill="#26a641" rx="2" /><rect x="444" y="114" width="11" height="11" fill="#161b22" rx="2" /><rect x="458" y="30" width="11" height="11" fill="#26a641" rx="2" /><rect x="458" y="44" width="11" height="11" fill="#26a641" rx="2" /><rect x="458" y="58" width="11" height="11" fill="#26a641" rx="2" /><rect x="458" y="72" width="11" height="11" fill="#0e4429" rx="2" /><rect x="458" y="86" width="11" height="11" fill="#26a641" rx="2" /><rect x="458" y="100" width="11" height="11" fill="#0e4429" rx="2" /><rect x="458" y="114" width="11" height="11" fill="#161b22" rx="2" /><rect x="472" y="30" width="11" height="11" fill="#161b22" rx="2" /><rect x="472" y="44" width="11" height="11" fill="#161b22" rx="2" /><rect x="472" y="58" width="11" height="11" fill="#161b22" rx="2" /><rect x="472" y="72" width="11" height="11" fill="#006d32" rx="2" /><rect x="472" y="86" width="11" height="11" fill="#006d32" rx="2" /><rect x="472" y="100" width="11" height="11" fill="#006d32" rx="2" /><rect x="472" y="114" width="11" height="11" fill="#161b22" rx="2" /><rect x="486" y="30" width="11" height="11" fill="#161b22" rx="2" /><rect x="486" y="44" width="11" height="11" fill="#006d32" rx="2" /><rect x="486" y="58" width="11" height="11" fill="#161b22" rx="2" /><rect x="486" y="72" width="11" height="11" fill="#161b22" rx="2" /><rect x="486" y="86" width="11" height="11" fill="#26a641" rx="2" /><rect x="486" y="100" width="11" height="11" fill="#006d32" rx="2" /><rect x="486" y="114" width="11" height="11" fill="#161b22" rx="2" /><rect x="500" y="30" width="11" height="11" fill="#161b22" rx="2" /><rect x="500" y="44" width="11" height="11" fill="#161b22" rx="2" /><rect x="500" y="58" width="11" height="11" fill="#0e4429" rx="2" /><rect x="500" y="72" width="11" height="11" fill="#006d32" rx="2" /><rect x="500" y="86" width="11" height="11" fill="#161b22" rx="2" /><rect x="500" y="100" width="11" height="11" fill="#0e4429" rx="2" /><rect x="500" y="114" width="11" height="11" fill="#161b22" rx="2" /><rect x="514" y="30" width="11" height="11" fill="#0e4429" rx="2" /><rect x="514" y="44" width="11" height="11" fill="#161b22" rx="2" /><rect x="514" y="58" width="11" height="11" fill="#161b22" rx="2" /><rect x="514" y="72" width="11" height="11" fill="#161b22" rx="2" /><rect x="514" y="86" width="11" height="11" fill="#161b22" rx="2" /><rect x="514" y="100" width="11" height="11" fill="#0e4429" rx="2" /><rect x="514" y="114" width="11" height="11" fill="#0e4429" rx="2" /><rect x="528" y="30" width="11" height="11" fill="#26a641" rx="2" /><rect x="528" y="44" width="11" height="11" fill="#161b22" rx="2" /><rect x="528" y="58" width="11" height="11" fill="#26a641" rx="2" /><rect x="528" y="72" width="11" height="11" fill="#161b22" rx="2" /><rect x="528" y="86" width="11" height="11" fill="#26a641" rx="2" /><rect x="528" y="100" width="11" height="11" fill="#161b22" rx="2" /><rect x="528" y="114" width="11" height="11" fill="#161b22" rx="2" /><rect x="542" y="30" width="11" height="11" fill="#161b22" rx="2" /><rect x="542" y="44" width="11" height="11" fill="#161b22" rx="2" /><rect x="542" y="58" width="11" height="11" fill="#161b22" rx="2" /><rect x="542" y="72" width="11" height="11" fill="#0e4429" rx="2" /><rect x="542" y="86" width="11" height="11" fill="#006d32" rx="2" /><rect x="542" y="100" width="11" height="11" fill="#161b22" rx="2" /><rect x="542" y="114" width="11" height="11" fill="#161b22" rx="2" /><rect x="556" y="30" width="11" height="11" fill="#006d32" rx="2" /><rect x="556" y="44" width="11" height="11" fill="#006d32" rx="2" /><rect x="556" y="58" width="11" height="11" fill="#161b22" rx="2" /><rect x="556" y="72" width="11" height="11" fill="#26a641" rx="2" /><rect x="556" y="86" width="11" height="11" fill="#0e4429" rx="2" /><rect x="556" y="100" width="11" height="11" fill="#161b22" rx="2" /><rect x="556" y="114" width="11" height="11" fill="#161b22" rx="2" /><rect x="570" y="30" width="11" height="11" fill="#26a641" rx="2" /><rect x="570" y="44" width="11" height="11" fill="#161b22" rx="2" /><rect x="570" y="58" width="11" height="11" fill="#0e4429" rx="2" /><rect x="570" y="72" width="11" height="11" fill="#0e4429" rx="2" /><rect x="570" y="86" width="11" height="11" fill="#161b22" rx="2" /><rect x="570" y="100" width="11" height="11" fill="#161b22" rx="2" /><rect x="570" y="114" width="11" height="11" fill="#0e4429" rx="2" /><rect x="584" y="30" width="11" height="11" fill="#0e4429" rx="2" /><rect x="584" y="44" width="11" height="11" fill="#26a641" rx="2" /><rect x="584" y="58" width="11" height="11" fill="#161b22" rx="2" /><rect x="584" y="72" width="11" height="11" fill="#0e4429" rx="2" /><rect x="584" y="86" width="11" height="11" fill="#161b22" rx="2" /><rect x="584" y="100" width="11" height="11" fill="#006d32" rx="2" /><rect x="584" y="114" width="11" height="11" fill="#26a641" rx="2" /><rect x="598" y="30" width="11" height="11" fill="#0e4429" rx="2" /><rect x="598" y="44" width="11" height="11" fill="#006d32" rx="2" /><rect x="598" y="58" width="11" height="11" fill="#006d32" rx="2" /><rect x="598" y="72" width="11" height="11" fill="#161b22" rx="2" /><rect x="598" y="86" width="11" height="11" fill="#161b22" rx="2" /><rect x="598" y="100" width="11" height="11" fill="#161b22" rx="2" /><rect x="598" y="114" width="11" height="11" fill="#161b22" rx="2" /><rect x="612" y="30" width="11" height="11" fill="#26a641" rx="2" /><rect x="612" y="44" width="11" height="11" fill="#26a641" rx="2" /><rect x="612" y="58" width="11" height="11" fill="#006d32" rx="2" /><rect x="612" y="72" width="11" height="11" fill="#161b22" rx="2" /><rect x="612" y="86" width="11" height="11" fill="#161b22" rx="2" /><rect x="612" y="100" width="11" height="11" fill="#161b22" rx="2" /><rect x="612" y="114" width="11" height="11" fill="#161b22" rx="2" /><rect x="626" y="30" width="11" height="11" fill="#161b22" rx="2" /><rect x="626" y="44" width="11" height="11" fill="#161b22" rx="2" /><rect x="626" y="58" width="11" height="11" fill="#0e4429" rx="2" /><rect x="626" y="72" width="11" height="11" fill="#006d32" rx="2" /><rect x="626" y="86" width="11" height="11" fill="#161b22" rx="2" /><rect x="626" y="100" width="11" height="11" fill="#006d32" rx="2" /><rect x="626" y="114" width="11" height="11" fill="#161b22" rx="2" /><rect x="640" y="30" width="11" height="11" fill="#161b22" rx="2" /><rect x="640" y="44" width="11" height="11" fill="#0e4429" rx="2" /><rect x="640" y="58" width="11" height="11" fill="#161b22" rx="2" /><rect x="640" y="72" width="11" height="11" fill="#006d32" rx="2" /><rect x="640" y="86" width="11" height="11" fill="#006d32" rx="2" /><rect x="640" y="100" width="11" height="11" fill="#0e4429" rx="2" /><rect x="640" y="114" width="11" height="11" fill="#26a641" rx="2" /><rect x="654" y="30" width="11" height="11" fill="#0e4429" rx="2" /><rect x="654" y="44" width="11" height="11" fill="#161b22" rx="2" /><rect x="654" y="58" width="11" height="11" fill="#161b22" rx="2" /><rect x="654" y="72" width="11" height="11" fill="#161b22" rx="2" /><rect x="654" y="86" width="11" height="11" fill="#161b22" rx="2" /><rect x="654" y="100" width="11" height="11" fill="#161b22" rx="2" /><rect x="654" y="114" width="11" height="11" fill="#161b22" rx="2" /><rect x="668" y="30" width="11" height="11" fill="#161b22" rx="2" /><rect x="668" y="44" width="11" height="11" fill="#161b22" rx="2" /><rect x="668" y="58" width="11" height="11" fill="#006d32" rx="2" /><rect x="668" y="72" width="11" height="11" fill="#161b22" rx="2" /><rect x="668" y="86" width="11" height="11" fill="#0e4429" rx="2" /><rect x="668" y="100" width="11" height="11" fill="#0e4429" rx="2" /><rect x="668" y="114" width="11" height="11" fill="#006d32" rx="2" /><rect x="682" y="30" width="11" height="11" fill="#161b22" rx="2" /><rect x="682" y="44" width="11" height="11" fill="#161b22" rx="2" /><rect x="682" y="58" width="11" height="11" fill="#26a641" rx="2" /><rect x="682" y="72" width="11" height="11" fill="#161b22" rx="2" /><rect x="682" y="86" width="11" height="11" fill="#26a641" rx="2" /><rect x="682" y="100" width="11" height="11" fill="#161b22" rx="2" /><rect x="682" y="114" width="11" height="11" fill="#161b22" rx="2" /><rect x="696" y="30" width="11" height="11" fill="#161b22" rx="2" /><rect x="696" y="44" width="11" height="11" fill="#26a641" rx="2" /><rect x="696" y="58" width="11" height="11" fill="#0e4429" rx="2" /><rect x="696" y="72" width="11" height="11" fill="#161b22" rx="2" /><rect x="696" y="86" width="11" height="11" fill="#26a641" rx="2" /><rect x="696" y="100" width="11" height="11" fill="#161b22" rx="2" /><rect x="696" y="114" width="11" height="11" fill="#161b22" rx="2" /><rect x="710" y="30" width="11" height="11" fill="#161b22" rx="2" /><rect x="710" y="44" width="11" height="11" fill="#161b22" rx="2" /><rect x="710" y="58" width="11" height="11" fill="#26a641" rx="2" /><rect x="710" y="72" width="11" height="11" fill="#161b22" rx="2" /><rect x="710" y="86" width="11" height="11" fill="#006d32" rx="2" /><rect x="710" y="100" width="11" height="11" fill="#161b22" rx="2" /><rect x="710" y="114" width="11" height="11" fill="#0e4429" rx="2" /><rect x="724" y="30" width="11" height="11" fill="#161b22" rx="2" /><rect x="724" y="44" width="11" height="11" fill="#161b22" rx="2" /><rect x="724" y="58" width="11" height="11" fill="#26a641" rx="2" /><rect x="724" y="72" width="11" height="11" fill="#161b22" rx="2" /><rect x="724" y="86" width="11" height="11" fill="#0e4429" rx="2" /><rect x="724" y="100" width="11" height="11" fill="#161b22" rx="2" /><rect x="724" y="114" width="11" height="11" fill="#0e4429" rx="2" />
  </g>

  <g transform="translate(10, 160)">
    <text x="0" y="0" class="sub">218 active days · 14 day longest streak</text>
    <text x="0" y="20" class="sub">most active → June 2026</text>
  </g>
</svg>